<svg xmlns="http://www.w3.org/2000/svg" viewBox="0 0 48 48" width="48px" height="48px"><path fill="#FFF" d="M4.868,43.303l2.694-9.835C5.9,30.59,5.026,27.324,5.027,23.979C5.032,13.514,13.548,5,24.014,5c5.079,0.002,9.845,1.979,13.43,5.566c3.584,3.588,5.558,8.356,5.556,13.428c-0.004,10.465-8.522,18.98-18.986,18.98c-3.191,0-6.316-0.8-9.146-2.32l-9.999,2.62L4.868,43.303z"/><path fill="#FFF" d="M24.014,5c5.079,0.002,9.845,1.979,13.43,5.566c3.584,3.588,5.558,8.356,5.556,13.428c-0.004,10.465-8.522,18.98-18.986,18.98c-3.191,0-6.316-0.8-9.146-2.32l-9.999,2.62L4.868,43.303l2.694-9.835C5.9,30.59,5.026,27.324,5.027,23.979C5.032,13.514,13.548,5,24.014,5 M24.014,2c-12.111-0.003-21.944,9.83-21.948,21.947c-0.002,3.905,1.018,7.701,2.956,11.059L2.016,45.98l11.168-2.928c3.279,1.787,6.965,2.73,10.816,2.732l0.015,0c12.114,0.001,21.956-9.839,21.961-21.957c0.003-5.867-2.28-11.381-6.425-15.526C35.405,4.256,29.88,1.972,24.014,2L24.014,2z"/><path fill="#4CAF50" d="M24.014,5c5.079,0.002,9.845,1.979,13.43,5.566c3.584,3.588,5.558,8.356,5.556,13.428c-0.004,10.465-8.522,18.98-18.986,18.98c-3.191,0-6.316-0.8-9.146-2.32l-9.999,2.62L4.868,43.303l2.694-9.835C5.9,30.59,5.026,27.324,5.027,23.979C5.032,13.514,13.548,5,24.014,5"/><path fill="#FFF" d="M35.176,28.847c-0.518-0.259-3.058-1.505-3.532-1.677c-0.475-0.172-0.82-0.258-1.165,0.259c-0.345,0.517-1.336,1.678-1.638,2.022c-0.301,0.344-0.603,0.388-1.121,0.129c-0.518-0.259-2.185-0.806-4.163-2.569c-1.547-1.378-2.59-3.081-2.892-3.601c-0.302-0.518-0.032-0.798,0.227-1.056c0.232-0.231,0.517-0.604,0.776-0.906c0.258-0.302,0.344-0.517,0.517-0.862c0.172-0.345,0.086-0.647-0.043-0.905c-0.129-0.259-1.165-2.808-1.595-3.844c-0.419-1.01-0.846-0.873-1.165-0.889c-0.297-0.015-0.638-0.018-0.978-0.018c-0.341,0-0.896,0.129-1.365,0.647c-0.469,0.517-1.794,1.753-1.794,4.275c0,2.523,1.837,4.962,2.094,5.308c0.258,0.345,3.616,5.521,8.762,7.742c3.058,1.319,4.246,1.414,5.757,1.189c1.365-0.203,3.058-1.25,3.489-2.457c0.431-1.207,0.431-2.242,0.302-2.457C36.037,29.235,35.693,29.106,35.176,28.847z"/></svg>
